<svg
  width="400"
  height="600"
  viewBox="0 0 400 600"
  xmlns="http://www.w3.org/2000/svg"
>
  <g fill="none" stroke="#e2e8f0" stroke-opacity="0.3" stroke-width="3">
    <circle cx="200" cy="140" r="70" />
    <ellipse cx="200" cy="150" rx="46" ry="36" />
    <rect x="140" y="210" width="120" height="150" rx="26" />
    <rect x="110" y="230" width="30" height="100" rx="12" />
    <rect x="260" y="230" width="30" height="100" rx="12" />
    <rect x="90" y="255" width="40" height="28" rx="12" />
    <rect x="270" y="255" width="40" height="28" rx="12" />
    <rect x="150" y="360" width="40" height="90" rx="14" />
    <rect x="210" y="360" width="40" height="90" rx="14" />
    <rect x="140" y="445" width="60" height="28" rx="14" />
    <rect x="200" y="445" width="60" height="28" rx="14" />
    <path d="M260 260 C330 260 350 320 320 380" />
    <path d="M320 380 C300 420 280 450 250 470" />
  </g>
  <g fill="#e2e8f0" fill-opacity="0.05">
    <circle cx="175" cy="125" r="10" />
    <rect x="165" y="250" width="70" height="40" rx="12" />
    <circle cx="210" cy="270" r="5" />
    <circle cx="190" cy="270" r="5" />
  </g>
</svg>
