<?xml version="1.0" encoding="UTF-8"?>
<svg width="256px" height="153px" viewBox="0 0 256 153" version="1.1" xmlns="http://www.w3.org/2000/svg" xmlns:xlink="http://www.w3.org/1999/xlink" preserveAspectRatio="xMidYMid">
    <g>
        <path d="M72.392703,55.4384886 L68.0766275,56.9154421 L68.0766275,59.1538226 L72.6274238,59.1538226 L72.6274238,62.203444 L68.0766275,62.203444 L68.0766275,67.8902142 L64.6520138,67.8902142 L64.6520138,53.2001081 L72.3966766,53.2001081 L72.392703,55.4384886 Z M76.8822822,67.8902142 L73.4576685,67.8902142 L73.4576685,53.2001081 L76.8822822,53.2001081 L76.8822822,67.8902142 Z M86.7886121,64.6765594 C86.7886121,65.4864838 87.4434805,65.9009494 88.7532335,65.9009494 C89.8841076,65.9009494 91.0149816,65.65181 92.1458556,65.1578708 L92.1458556,67.6450484 C90.9354879,68.1389876 89.6712296,68.3881534 88.3614765,68.3881534 C85.1481186,68.3881534 83.3679983,66.7320319 83.3679983,63.6785914 L83.3679983,58.6559097 L81.5878779,58.6559097 L81.5878779,56.4175292 L83.3679983,56.4175292 L83.3679983,53.6980736 L86.7886121,53.6980736 L86.7886121,56.4175292 L91.2601738,56.4175292 L91.2601738,58.6559097 L86.7886121,58.6559097 L86.7886121,64.6765594 Z M102.295444,56.171704 C102.989339,56.171704 103.470624,56.2511775 103.764735,56.4175292 L103.225819,59.5722882 C102.883973,59.4059365 102.444952,59.3264631 101.907983,59.3264631 C100.304234,59.3264631 99.2686688,60.2348943 99.2686688,62.203444 L99.2686688,67.8902142 L95.8440551,67.8902142 L95.8440551,56.4175292 L98.8372328,56.4175292 L99.122344,58.0775244 L99.2686688,58.0775244 C99.9626003,56.8671567 100.99873,56.171704 102.295444,56.171704 L102.295444,56.171704 Z M114.353326,67.8902142 L111.36015,67.8902142 L111.06894,66.4086614 L110.922615,66.4086614 C110.08205,67.3965134 108.97118,67.8902142 107.612691,67.8902142 C105.078576,67.8902142 103.740065,66.1058674 103.740065,64.1373177 C103.740065,61.3421838 106.029551,59.8525312 110.043287,59.8525312 L110.043287,59.6782058 C110.043287,58.5671053 109.365391,58.0775244 108.0914,58.0775244 C106.964425,58.0775244 105.793131,58.4085164 104.621838,59.0236167 L103.446623,56.9713684 C104.814033,56.1614696 106.496941,55.7430304 108.487421,55.7430304 C111.700678,55.7430304 113.510324,57.4518037 113.510324,60.6533336 L113.510324,64.7484344 C113.514292,66.1139778 113.636515,67.1455048 113.874626,67.8902142 L114.353326,67.8902142 Z M110.045272,62.4525834 L110.045272,61.7587996 C107.979696,61.7587996 107.110689,62.3738743 107.110689,63.431028 C107.110689,64.1373177 107.569711,64.543284 108.340049,64.543284 C109.301921,64.543284 110.045272,63.7295116 110.045272,62.4525834 L110.045272,62.4525834 Z M126.901175,67.8902142 L123.370563,67.8902142 L123.370563,61.6039203 C123.370563,60.2148051 122.789784,59.5722882 121.70891,59.5722882 C120.445182,59.5722882 119.722068,60.5599926 119.722068,62.0456705 L119.722068,67.8902142 L116.191456,67.8902142 L116.191456,56.4175292 L119.153236,56.4175292 L119.438373,57.8289847 L119.584698,57.8289847 C120.359004,56.5560301 121.576954,55.7430304 123.131911,55.7430304 C125.656026,55.7430304 126.897189,57.4159018 126.897189,60.0381969 L126.897189,67.8902142 L126.901175,67.8902142 Z M133.87922,68.3881534 C130.911409,68.3881534 129.192026,66.1855792 129.192026,62.1251439 C129.192026,58.0059512 131.038249,55.7430304 134.115346,55.7430304 C136.948449,55.7430304 138.667831,57.8289847 138.667831,61.8362733 C138.667831,66.0271013 136.821608,68.3881534 133.87922,68.3881534 L133.87922,68.3881534 Z M134.042318,58.3146902 C132.900537,58.3146902 132.471517,59.6423246 132.471517,62.1131703 C132.471517,64.5840159 132.902522,66.0032539 134.044304,66.0032539 C135.186084,66.0032539 135.637091,64.6756195 135.637091,62.2044438 C135.639077,59.7336982 135.184099,58.3146902 134.042318,58.3146902 L134.042318,58.3146902 Z M143.893293,53.2001081 C145.070492,53.2001081 146.029379,54.1241594 146.029379,55.2830016 C146.029379,56.4418438 145.072477,57.377759 143.893293,57.377759 C142.714109,57.377759 141.757206,56.4418438 141.757206,55.2830016 C141.759192,54.1221858 142.714109,53.2001081 143.893293,53.2001081 L143.893293,53.2001081 Z M145.604959,67.8902142 L142.074347,67.8902142 L142.074347,56.4175292 L145.604959,56.4175292 L145.604959,67.8902142 Z M157.466798,67.8902142 L153.936187,67.8902142 L153.936187,61.6039203 C153.936187,60.2148051 153.355407,59.5722882 152.274533,59.5722882 C151.010806,59.5722882 150.287691,60.5599926 150.287691,62.0456705 L150.287691,67.8902142 L146.757079,67.8902142 L146.757079,56.4175292 L149.71886,56.4175292 L150.003996,57.8289847 L150.150321,57.8289847 C150.924627,56.5560301 152.142577,55.7430304 153.697534,55.7430304 C156.22165,55.7430304 157.462813,57.4159018 157.462813,60.0381969 L157.462813,67.8902142 L157.466798,67.8902142 Z M170.514152,59.1003733 L166.492416,59.1003733 L166.492416,67.8902142 L163.067802,67.8902142 L163.067802,59.1003733 L160.941743,59.1003733 L160.941743,57.0841453 L163.067802,56.5202588 L163.067802,56.0064318 C163.067802,53.2232517 164.552643,51.6893817 167.408811,51.6893817 C168.499685,51.6893817 169.591537,51.9385475 170.514152,52.4284867 L169.664882,54.5965823 C168.976986,54.3038896 168.28909,54.1375379 167.658994,54.1375379 C166.79196,54.1375379 166.492416,54.8990103 166.492416,56.0064318 L166.492416,56.6573884 L170.514152,56.6573884 L170.514152,59.1003733 Z M181.669257,67.8902142 L178.138645,67.8902142 L178.138645,61.6039203 C178.138645,60.2148051 177.557865,59.5722882 176.476991,59.5722882 C175.213264,59.5722882 174.490149,60.5599926 174.490149,62.0456705 L174.490149,67.8902142 L170.959538,67.8902142 L170.959538,56.4175292 L173.921318,56.4175292 L174.206454,57.8289847 L174.352779,57.8289847 C175.127085,56.5560301 176.345035,55.7430304 177.899992,55.7430304 C180.424108,55.7430304 181.66527,57.4159018 181.66527,60.0381969 L181.66527,67.8902142 L181.669257,67.8902142 Z M192.824361,67.8902142 L189.831185,67.8902142 L189.539976,66.4086614 L189.39365,66.4086614 C188.553085,67.3965134 187.442216,67.8902142 186.083727,67.8902142 C183.549611,67.8902142 182.211101,66.1058674 182.211101,64.1373177 C182.211101,61.3421838 184.500587,59.8525312 188.514323,59.8525312 L188.514323,59.6782058 C188.514323,58.5671053 187.836427,58.0775244 186.562436,58.0775244 C185.435461,58.0775244 184.264167,58.4085164 183.092873,59.0236167 L181.917659,56.9713684 C183.285069,56.1614696 184.967977,55.7430304 186.958457,55.7430304 C190.171714,55.7430304 191.98136,57.4518037 191.98136,60.6533336 L191.98136,64.7484344 C191.985345,66.1139778 192.107568,67.1455048 192.345679,67.8902142 L192.824361,67.8902142 Z M188.518309,62.4525834 L188.518309,61.7587996 C186.452732,61.7587996 185.583724,62.3738743 185.583724,63.431028 C185.583724,64.1373177 186.042747,64.543284 186.813085,64.543284 C187.774957,64.543284 188.518309,63.7295116 188.518309,62.4525834 L188.518309,62.4525834 Z" fill="#FFFFFF"></path>
        <path d="M98.1432749,48.5612864 C89.8921004,54.6596903 77.5020548,58.2834571 66.8726063,58.2834571 C52.3913393,58.2834571 39.2831872,52.5170948 29.4994473,43.2259903 C28.7696893,42.5322065 29.3807925,41.567477 30.3685226,42.1091208 C41.0010129,48.2504744 54.3837627,51.8186412 68.3064172,51.8186412 C77.7353206,51.8186412 88.1138137,49.8837797 97.5004436,45.8481057 C99.0119433,45.1821609 100.250121,46.841829 98.1432749,48.5612864 L98.1432749,48.5612864 Z M102.008831,44.0875954 C100.925972,42.7104408 94.1881086,43.4856698 91.1949308,43.8982091 C90.2745834,44.0337844 90.1204926,43.23372 90.9224177,42.6363611 C96.122155,39.0622943 104.868262,40.0618751 105.790877,41.2007167 C106.713493,42.3474782 105.554464,49.9553029 100.678325,53.9433233 C99.9118259,54.5447822 99.1661943,54.2101478 99.4789474,53.3684192 C100.455819,50.5871853 103.095689,45.4682022 102.008831,44.0875954 L102.008831,44.0875954 Z M91.7622367,29.4392504 L91.7622367,26.2224264 C91.7622367,25.7006257 92.1965665,25.3578649 92.7124079,25.3578649 L106.731244,25.3578649 C107.247085,25.3578649 107.681416,25.7006257 107.681416,26.2224264 L107.681416,29.0069417 C107.681416,29.5128751 107.251071,30.1101603 106.547387,31.1595609 L99.220363,41.7379447 C102.156046,41.6723976 105.284603,42.1328683 107.938264,43.6046464 C108.523011,43.9196147 108.680601,44.4334417 108.723984,44.947085 L108.723984,48.3241735 C108.723984,48.8460214 108.167542,49.4474804 107.589776,49.1762138 C103.39919,47.0628331 97.5897908,46.7341987 92.7263022,49.2139157 C92.204462,49.4692815 91.6421465,48.882637 91.6421465,48.3569519 L91.6421465,45.0926384 C91.6421465,44.5232006 91.648196,43.7688013 92.0587786,43.0849175 L100.531985,30.6757086 L92.7163815,30.6757086 C92.2006878,30.6757086 91.7622367,30.3329215 91.7622367,29.8111208 L91.7622367,29.4392504 Z M34.0525173,50.5257033 C33.1957229,50.5257033 32.5057021,49.8437987 32.5057021,49.0080001 L32.5057021,26.5628221 C32.5057021,25.7270499 33.1957229,25.0471189 34.0525173,25.0471189 L38.0207006,25.0471189 C38.8814951,25.0471189 39.5775002,25.7349709 39.5775002,26.5628221 L39.5775002,48.9920265 C39.5775002,49.8337302 38.8794951,50.5257033 38.0207006,50.5257033 L34.0525173,50.5257033 Z M139.421182,50.6120462 C138.702035,50.6120462 138.208645,50.0858454 137.975801,49.4047881 L127.220734,27.0528491 L127.208785,27.0528491 L127.208785,49.006053 C127.208785,49.8418252 126.519903,50.5257033 125.661094,50.5257033 L121.85368,50.5257033 C121.003869,50.5257033 120.304023,49.8418252 120.304023,49.006053 L120.304023,26.3414843 C120.304023,25.5671586 121.004854,24.9417315 121.85368,24.9417315 L126.823391,24.9417315 C127.596711,24.9417315 128.249619,25.5681323 128.482463,26.1728429 L138.832553,47.5951954 L138.844502,47.5951954 L138.844502,26.3414843 C138.844502,25.5671586 139.533384,24.9417315 140.378227,24.9417315 L144.193673,24.9417315 C145.043485,24.9417315 145.743331,25.5671586 145.743331,26.3414843 L145.743331,49.006053 C145.743331,49.8418252 145.043485,50.5257033 144.193673,50.5257033 L139.421182,50.5257033 L139.421182,50.6120462 Z M159.018703,50.8671356 C153.847238,50.8671356 150.136816,49.3122367 149.88078,43.5212772 C149.837398,42.7469515 150.478304,42.0333683 151.280563,42.0333683 L155.002456,42.0333683 C155.747791,42.0333683 156.359431,42.604069 156.494785,43.3189574 C156.931835,45.5295899 158.210858,46.319152 160.548349,46.319152 C162.202256,46.319152 164.171736,45.6273002 164.171736,43.656724 C164.171736,42.154984 163.101862,41.3714745 160.479288,40.4907635 L157.880418,39.6141803 C153.886653,38.1982077 151.201501,35.9081012 151.201501,31.5204226 C151.201501,26.4119578 155.583236,23.5602778 159.956286,23.5602778 C164.713705,23.5602778 168.782419,25.8523579 169.249456,30.9179372 C169.300838,31.6924649 168.666849,32.4058461 167.856575,32.4058461 L164.218151,32.4058461 C163.52927,32.4058461 162.966795,31.9267068 162.786499,31.3042534 C162.105617,29.1571943 160.639713,28.1119474 159.124283,28.1119474 C157.343324,28.1119474 155.893519,29.0661319 155.893519,30.7352116 C155.893519,32.0855396 156.729116,32.7852969 159.072901,33.5299799 L161.321326,34.2772899 C165.595909,35.7538359 168.868396,37.8612702 168.868396,42.5452217 C168.868396,48.1350937 164.025909,50.8671356 159.018703,50.8671356 L159.018703,50.8671356 Z M65.2164848,50.8671356 C60.0450195,50.8671356 56.3345975,49.3122367 56.0785616,43.5212772 C56.0351793,42.7469515 56.6760853,42.0333683 57.4783447,42.0333683 L61.2002377,42.0333683 C61.9455725,42.0333683 62.5572132,42.604069 62.6925668,43.3189574 C63.1296169,45.5295899 64.4086399,46.319152 66.7461313,46.319152 C68.4000378,46.319152 70.3695173,45.6273002 70.3695173,43.656724 C70.3695173,42.154984 69.2996433,41.3714745 66.6770692,40.4907635 L64.0781994,39.6141803 C60.0844345,38.1982077 57.3992827,35.9081012 57.3992827,31.5204226 C57.3992827,26.4119578 61.7810178,23.5602778 66.1540674,23.5602778 C70.9114861,23.5602778 74.9802005,25.8523579 75.4472367,30.9179372 C75.498619,31.6924649 74.8646295,32.4058461 74.0543963,32.4058461 L70.4159523,32.4058461 C69.7270715,32.4058461 69.1645967,31.9267068 68.9843003,31.3042534 C68.3034186,29.1571943 66.8375153,28.1119474 65.3220855,28.1119474 C63.5410971,28.1119474 62.0912915,29.0661319 62.0912915,30.7352116 C62.0912915,32.0855396 62.9268885,32.7852969 65.2706772,33.5299799 L67.519102,34.2772899 C71.7936849,35.7538359 75.0661355,37.8612702 75.0661355,42.5452217 C75.0661355,48.1350937 70.2236489,50.8671356 65.2164848,50.8671356 L65.2164848,50.8671356 Z M191.5556,51.0393873 C187.136835,51.0393873 183.493361,48.7890069 183.493361,43.2285903 L183.493361,33.6559452 L182.198304,33.6559452 C181.399959,33.6559452 180.744066,32.9859878 180.744066,32.1919794 L180.744066,29.0327365 C180.744066,28.2467282 181.399959,27.5688235 182.198304,27.5688235 L183.493361,27.5688235 L183.493361,23.3572743 C183.493361,22.5712661 184.18323,21.9032351 185.033041,21.9032351 L188.840456,21.9032351 C189.698279,21.9032351 190.388149,22.5712661 190.388149,23.3572743 L190.388149,27.5688235 L193.612648,27.5688235 C194.40704,27.5688235 195.054918,28.2387808 195.054918,29.0327365 L195.054918,32.1919794 C195.054918,32.9859878 194.40704,33.6559452 193.612648,33.6559452 L190.388149,33.6559452 L190.388149,42.2706095 C190.388149,43.8671317 191.451039,44.5667889 192.773451,44.5667889 C193.184439,44.5667889 193.563622,44.5311894 193.863166,44.4677423 C194.597485,44.3611813 195.202091,44.9091665 195.202091,45.6430558 L195.202091,49.1216645 C195.202091,49.78568 194.630341,50.3534156 193.975434,50.4311915 C193.184439,50.5257033 192.367462,51.0393873 191.5556,51.0393873 L191.5556,51.0393873 Z M209.291676,50.5257033 C208.43484,50.5257033 207.747946,49.8576986 207.747946,49.0736641 L207.747946,34.3260288 L206.452889,34.3260288 C205.646601,34.3260288 204.998723,33.6590188 204.998723,32.8700631 L204.998723,29.7088465 C204.998723,28.9218382 205.646601,28.25194 206.452889,28.25194 L207.747946,28.25194 L207.747946,27.1531405 C207.747946,24.1294769 209.563604,21.0006608 214.631986,21.0006608 C215.507993,21.0006608 216.329855,21.1062218 217.079157,21.2286828 C217.767041,21.3431649 218.258445,21.9476735 218.258445,22.6415822 L218.258445,25.5775392 C218.258445,26.3475757 217.623455,26.914561 216.89108,26.8139737 C216.553237,26.7654216 216.250694,26.7416479 215.983806,26.7416479 C214.290144,26.7416479 214.290144,27.870395 214.290144,28.6257943 L214.290144,28.25194 L216.872067,28.25194 C217.679341,28.25194 218.326233,28.9189719 218.326233,29.7088465 L218.326233,32.8700631 C218.326233,33.6590188 217.679341,34.3260288 216.872067,34.3260288 L214.650851,34.3260288 L214.650851,49.0736641 C214.650851,49.8576986 213.962957,50.5257033 213.106121,50.5257033 L209.291676,50.5257033 Z M228.471541,56.8429686 C227.680149,56.8429686 226.99027,56.138015 226.99027,55.3916813 L226.99027,52.2403648 C226.99027,51.4742699 227.680149,50.7791688 228.471541,50.7791688 L229.205861,50.7791688 C231.3584,50.7791688 232.158729,49.9485135 232.82763,47.8629318 L232.925852,47.5598899 L225.202342,29.1017837 C224.959498,28.556883 225.041545,27.8897465 225.608329,27.5747518 C225.895451,27.4026238 226.240308,27.3062357 226.597044,27.3062357 L230.532277,27.3062357 C231.307583,27.3062357 231.853518,27.8055232 232.094377,28.3415502 L236.321854,39.4400523 L236.333804,39.4400523 L240.240037,28.3415502 C240.480896,27.8055232 240.99877,27.3062357 241.806045,27.3062357 L245.564969,27.3062357 C245.932705,27.3062357 246.265515,27.4016501 246.561073,27.5747518 C247.127858,27.8888729 247.20989,28.5580356 246.966061,29.1017837 L238.736336,48.8268394 C236.719121,53.9194234 234.578567,56.8429686 229.211845,56.8429686 L228.471541,56.8429686 Z" fill="#FFFFFF"></path>
    </g>
</svg>