<?xml version="1.0" encoding="UTF-8"?>
<svg width="256px" height="256px" viewBox="0 0 256 256" version="1.1" xmlns="http://www.w3.org/2000/svg" xmlns:xlink="http://www.w3.org/1999/xlink" preserveAspectRatio="xMidYMid">
    <g>
        <path d="M128,0 C198.6912,0 256,57.3088 256,128 C256,198.6912 198.6912,256 128,256 C57.3088,256 0,198.6912 0,128 C0,57.3088 57.3088,0 128,0 Z M128,48.4 C84.2912,48.4 48.4,84.2912 48.4,128 C48.4,171.7088 84.2912,207.6 128,207.6 C171.7088,207.6 207.6,171.7088 207.6,128 C207.6,84.2912 171.7088,48.4 128,48.4 Z M128,71.6 C158.5496,71.6 183.2,96.2504 183.2,126.8 C183.2,157.3496 158.5496,182 128,182 C97.4504,182 72.8,157.3496 72.8,126.8 C72.8,96.2504 97.4504,71.6 128,71.6 Z" fill="#FFFFFF"></path>
    </g>
</svg>